<?xml version="1.0" encoding="UTF-8"?>
<svg id="b" data-name="Weiß" xmlns="http://www.w3.org/2000/svg" width="1185.51294" height="391.00899" viewBox="0 0 1185.51294 391.00899">
  <defs>
    <style>
      .c {
        fill: #fff;
      }
    </style>
  </defs>
  <g>
    <path class="c" d="M980.23999,263.67419c.03998-1.89001-1.45001-3.19-3.42999-3.22-19.5-.28-33.64001.37-53.65997-1.62-9.34998-.92999-12.98999-2.01001-17.03998,7.82999-10.89001,29-13.98999,62.62-14.39001,86.26999-.35999,22.35999,5.57001,35.29999,26.47998,35.79001,38.39001.89001,54.91998-16.13998,51.27002-37.63-.44-2.54999-3.53003-3.31-5.47998-1.67001-12.12,10.23999-23.72998,14.54999-32.52997,14.10999-13.17999-.67001-12.97998-10.23999-9.53003-32.95999,31.69,6.31,40.02002-5.48001,41.79999-16.01001.34003-2-1.45001-4.16-4.65002-3.92001-9.01001.70001-21.62-.29001-32.79999-1.28,2.90997-14.12,4.46997-21.66,4.53003-28.75,18.45001,3.26999,48.88,8.78,49.41998-16.94l.00995.00006Z"/>
    <path class="c" d="M892.84998,253.2742c-42.90002,7.31-87.72998-23.42999-90.13,13.89999-.16998,2.64001,1.39001,4.14999,3.82001,4.25,10.33002.42999,18.69,2.13,26.92999,3.82001-10.78003,52.92999-18.42999,112.07001,16.25,112.63998,2.42999.04999,4.31-2.17999,3.94-4.59-3.02002-19.42999,3.01001-68.26001,7.03998-104.19998,21.81.54001,33.71997-4.5,36.76001-21.26001.58002-3.20999-1.64001-5.04001-4.59998-4.56h-.01001Z"/>
    <path class="c" d="M1159.63,277.5842c-42.06006,5.09-86.05994-21.95001-87.55994,13.47-.07996,1.88,1.31995,3.54999,3.45996,3.70001,9.93994.70001,16.88,2.10001,23.18994,3.42001-10.95996,43.83002-20.53003,92.5,13.33997,89.62,2.34998-.19,4.15002-2.19,3.76001-4.13,2.30005-19.57001,4.43994-54.33002,8.12-82.28,19.59998.26001,36.03003-7.63,39.87-20.09.63-2.04001-1.53003-4-4.18005-3.72l.00012.00998Z"/>
    <path class="c" d="M629.67999,236.5542c-33.73999-.03999-54.28998,40.14999-53.97998,81.88998.29999,41.78,23.12,69.23999,51,69.28,29.03003,0,54.40002-30.72,55.33002-79.80002.81-43.54999-19-71.33-52.34003-71.37l-.01001.00003ZM651.14001,311.41422c-.35999,31.95001-8.26001,53.92999-21.06,53.89999-12.81-.04001-21.76001-21.06-21.72998-54.17001.02002-29.91,10.42999-53.94,22.39001-54.01999,14.02002-.09,20.76001,22.35001,20.40997,54.29001h-.01001Z"/>
    <path class="c" d="M327.60001,283.8942c-1.06-21.01999-8.54999-35.99001-30.54999-33.60001-14.10001,1.54001-25.84,11.45001-33.29001,32.51001-4.04001-17.06-13.03999-27.5-31.82001-23.13-2.32001.53-3.74001,2.73999-3.03999,4.73999,12.46001,36.66-9.74001,122.28,33.64,124.11002,2.29001.10001,4.01999-1.76001,3.84-3.94-3.45999-41.54001,2.44-101.12,19.87-102.70001,14.97-1.20001,8.98999,28.04999,11.04999,62.34,1.70999,28.48001,13.14999,51.88,40.08002,41.32001,2.23999-.88,3.16-3.59,1.82001-5.62-15.13-22.88998-10.29001-69.48001-11.60001-96.04001v.01001Z"/>
    <path class="c" d="M792.40997,281.3342c.76001-21.54999-4.33002-37.53-26.70001-39.10001-14.17999-.99001-27.85999,7.8-37.27002,29.45999-2.44-18.82001-10.35999-33.95-29.5-32.12-2.35999.23-3.98999,2.45-3.47998,4.77,8.92999,41.71001-23.62,139.37001,19.88,143.18001,2.29999.20001,4.20001-1.73001,4.22998-4.07999.40997-45.04001,11.91998-110.76999,31.77002-109.69,16.71997.85001,7.13,29.94,6,66.79001-.90997,30.16,7.44,54.95999,35.39001,45.33002,2.32001-.79001,3.48999-3.48999,2.33002-5.63-13.10999-24.20999-3.62-71.51999-2.65002-98.91v-.00003Z"/>
    <path class="c" d="M530.90997,264.6842c8.02002-.16,15.31,8.98999,17.87,25.73001.25,1.67001,1.69,2.69,2.98999,2.45001,11.90002-2.16,20.13-11.31,20.26001-22.66.17999-16.01999-14.41998-33.64-38.01001-33.14999-77.26999,2.57001-79.85001,153.03998-6.21997,152.47,34.25-.20999,46.46002-24.23001,39.45001-36.82999-1.33002-2.38-3.22998-1.91-4.87-.03-5.47998,6.31-14.64001,11.03-25.25,10.73001-40.39999-1.10999-35.41998-97.95999-6.21997-98.70001l-.00006-.01004Z"/>
    <path class="c" d="M442.60999,321.8042c.13-5.39001-1.62-9.94-9.51999-9.94-3.78,0-9.51999.92001-17.41.92001-8.42999,0-11.70001-.23001-16.78-.23001-3.60999,0-5.56,3.09-5.59,7.64999-.12,15.57001,16.12,17.66,27.03,14.64001-1.78,16.17001-12.04001,26.37-20.45001,26.37-13.37,0-22.86002-14.35001-25.16-42.16-2.79999-33.75,8.12-48.07001,22.19-48.94,7.57001-.45001,14.82001,5.64001,18.13,20.82001.32999,1.51001,1.72,2.28,2.95001,2.04001,11.66-2.25,20.92001-10.06,20.92001-22.39001,0-15.26999-15.82001-29.07001-38.78-27.50999-39.23999,2.88-62.29999,43.56999-58.35999,86.16002,3.66,40.14001,23.32999,59.16,49.48999,58.66,11.16-.23999,22.79001-7.63,28.75-18.07999,1.60001,11.62,8.39999,19.82001,21.64999,17.23001,1.89999-.37,3.17001-1.95999,3-3.97-1.29001-15.19-2.54001-42.66998-2.07001-61.28l.00998.00995Z"/>
    <path class="c" d="M1030.90002,262.37421c-28.53998-.23001-47.29999,17.17999-47.29999,43.04001,0,18.78,15.42999,26.70999,29.60999,32.19,12.03998,4.64999,23.16998,7.92001,23.16998,15.14001,0,15.73001-29.76001,13.70001-49.28998-3.26001-1.81-1.57999-4.62-.88-5.44,1.39999-8.59998,24.01999,9.66998,37.72,34.95001,37.72,31.82001,0,45.64996-21.85001,45.64996-42.44,0-18.04001-11.37-24.35001-29.25-30.04999-11.33002-3.60999-21.63-6.75-21.63-13.64001,0-9.04001,8.81-13.91,19.62-13.91,8.70996,0,18.32996,2.34,27.31006,7.39001,1.68994.95001,3.82996.29001,4.70996-1.45999,1.82996-3.62,2.60999-7.01999,2.60999-10.14999,0-13.92999-16.64001-21.82999-34.72998-21.97l.01001-.00003Z"/>
    <path class="c" d="M168.47,261.82422c-31.57001,1.79999-47.33,36.57001-45.15,71.51001,2.19,35.03,25.16,56.95001,52.1,55.41,28.06-1.60001,49.49001-28.98999,47.31-70.48001-1.94-36.84-22.69-58.23001-54.25999-56.44ZM175.85001,368.2442c-12.32001.70001-21.24001-14.95999-22.78-42.73001-1.39-25.07999,6.61-45.26001,17.85001-45.89999,13.48-.76999,19.95999,16.62,21.53,43.66,1.56,26.87-4.28,44.26999-16.60001,44.97Z"/>
    <path class="c" d="M83.76,318.7742c-13.18-2.07001-24.07-2.25-24.07-10.97,0-8.14999,10.85-13.10001,22.96-13.10001,7.26,0,15.31.98999,22.65,3.69,1.78.66,3.79-.23999,4.44-1.98999,6.73-18.14999-11.19-25.91-32.93-24.29001-25.48,1.89999-45.96,18.04001-44.82,39.75.82,15.64999,10.23,25.57001,31.66,30.07999,13.89,2.92001,27.19,3.19,27.73,10.48001,1.1,14.70999-27.46,16.82999-48.79,3.69-1.98-1.22-4.65-.19-5.16,2.03-4.2,18.26999,9.64,30.94,31.65,30.94,23.43,0,48.3-10.87,48.3-40.22,0-23.42999-15.77-27.31-33.61-30.12l-.01.03Z"/>
  </g>
  <g>
    <path class="c" d="M289.56412,83.80506c-2.41293-21.29468-14.46939-39.68268-38.39645-34.56677-19.65355,3.61594-30.87454,21.31747-35.52539,39.44769-5.88084-18.02792-20.14392-29.03256-39.34653-22.11414-2.6375.85873-4.03781,3.47687-3.00041,5.61176,13.27678,29.67648,1.40674,137.11259,51.71579,133.94514,2.58171-.12531,4.3372-2.36543,3.91518-4.76636-3.57932-20.45061-18.23714-106.63347,12.62984-115.99529,19.87978-1.91809,17.03679,56.44849,18.46327,68.16626,3.52576,23.58249,18.63342,58.99283,48.85318,42.44545,2.45142-1.15652,3.27805-4.24109,1.60928-6.39154-21.59311-28.75189-16.80396-72.03893-20.91858-105.79335.00034.00446.00049.00668.00082.01114Z"/>
    <path class="c" d="M549.16565,41.59156c.02612-2.23535-1.83813-3.75351-4.29462-3.76077-22.24243.10721-44.38538.55069-66.60773-.61954-11.63089-.78091-16.20474-1.90472-20.83972,9.88791-10.65726,33.31183-14.68082,67.62543-14.05902,102.56236.12225,21.75279,8.22299,42.05455,33.19763,41.25305,26.82251.3676,67.46942-10.92091,60.66876-45.79784-.57294-3.0078-4.32489-3.85378-6.65289-1.87865-10.41479,9.35774-24.63284,17.25938-38.91293,17.47165-20.04141,1.10548-14.16614-27.3875-12.55704-38.65718,18.39667,2.19318,46.68707,4.04465,50.52191-20.02661.37897-2.37112-1.849-4.89285-5.75696-4.54355-13.35141,1.00906-26.80505.19769-40.14243-.64542,2.06772-11.23972,4.71243-22.63535,4.68484-34.12921,19.10703,2.82535,61.31378,9.88559,60.73785-21.11618.00488-.00003.00739,0,.01233-.00003Z"/>
    <path class="c" d="M155.86769,213.08382c2.10764-.14543,3.63808-1.19922,3.94255-3.60347,3.64719-29.54686,30.07649-152.98532-27.42924-149.05243-2.90553.22797-4.13005,2.51135-3.39951,5.04758,6.56615,24.78265-16.87612,151.91539,26.88626,147.60834l-.00006-.00002Z"/>
    <path class="c" d="M756.42883,38.16648c-41.15649-1.72287-59.8324,47.83304-59.94025,81.70059-1.133,30.83009,15.11621,70.9536,50.81506,72.3795,41.25385,1.53587,57.62183-45.79434,61.34137-78.74748,2.65338-34.92258-12.05963-73.91949-52.20551-75.33224-.00427-.00015-.00641-.00021-.01068-.00037ZM775.99182,115.47443c-1.31909,14.96167-2.71655,52.60966-24.30267,54.04881-22.05658-3.10783-20.65979-40.61665-20.6745-56.09062.50739-15.94742,4.50525-51.81509,25.72028-54.23938,22.64966,2.51566,19.67456,41.00522,19.26746,56.28168-.00421-.00018-.00635-.00031-.01056-.00049Z"/>
    <path class="c" d="M882.60022,73.07356c11.92993,1.65625,16.53516,17.12927,16.88116,27.32974.1358,1.70496,1.56458,2.84695,2.94226,2.70731,11.58527-1.04913,21.79297-9.24908,23.02637-21.20599,1.61792-20.90207-18.45099-35.65204-37.59705-36.49301-78.28809-2.32373-97.16144,147.69493-17.26208,153.47511,17.19012.91035,52.9104-9.47803,43.22662-34.16241-1.17944-2.5099-3.1767-2.19028-5.01453-.42546-6.2998,6.40233-17.99152,10.11302-26.79388,8.88243-39.20428-3.20152-35.98596-100.03847.59045-100.09758.00031-.00406.00037-.0061.00067-.01013Z"/>
    <path class="c" d="M1179.9126,82.9362c.36414-2.20563-1.25366-3.98895-3.68665-4.3685-22.0498-3.26459-44.05249-6.18082-65.8894-10.70435-11.40015-2.53329-15.75867-4.33661-22.13159,6.61865-15.58911,31.3121-24.76318,64.62218-29.43237,99.25427-3.17371,21.55219,1.80518,42.81949,26.62976,45.8046,26.44641,4.41487,68.48755-.532,67.02332-36.0799-.11267-3.06003-3.70215-4.46492-6.3075-2.86534-11.74072,7.67523-27.01758,13.32785-41.18982,11.37512-20.00378-1.93236-9.89221-29.19971-6.58862-40.11423,17.86328,4.94736,45.62317,11.09052,53.07349-12.1425.73413-2.28639-1.0918-5.11676-5.01636-5.36368-13.37769-1.02554-26.58105-3.86536-39.66492-6.71924,3.7478-10.79669,8.09082-21.66064,9.80225-33.02701,18.46179,5.67612,59.2406,19.0842,63.36609-11.66974.00488.00073.00745.00113.01233.00183Z"/>
    <path class="c" d="M56.78813,182.04917c-.3479,1.74478.25658,3.51967.39796,5.25731.77063,9.47133,2.02702,19.28246,4.05271,28.59854.3671,1.68826.94713,3.39418,1.40983,5.06477-2.07103,3.57289-8.36107,4.53685-12.06998,4.97932-13.27532,1.58374-23.30332-7.92644-25.47603-20.28407-3.30251-18.7836-3.25517-38.89156-5.12992-57.89635-1.68942-17.12602-4.46631-34.21062-10.51764-50.06151-1.90616-4.99301-4.91411-6.57828.71906-10.81616,17.40034-13.09045,43.66465-17.49039,64.95306-19.57883,15.78733-1.54877,33.867,4.08371,42.10521,18.58853,12.75945,22.46527-.15858,49.86923-15.64846,67.12497-11.86746,13.22037-28.00564,23.1868-44.7958,29.02347ZM54.87463,162.31593c12.46122-7.47833,23.22536-18.44388,28.91332-31.85809,9.43352-22.24759-2.36224-46.36789-28.61237-39.64062-3.45103.8844-6.78049,2.30771-10.09686,3.55893,2.33806,8.6842,3.49577,17.50781,4.77675,26.38876.08333.57773.4206,1.07935.50014,1.65692,1.50383,13.29831,3.01017,26.59636,4.51902,39.8941Z"/>
    <path class="c" d="M351.86127,131.97816c-.17563.05383-.26343.08075-.43909.13461.23669,2.77267-.13132,5.56859-.17667,8.3387-.24432,14.92108.59344,30.01364,3.60477,44.63606.27441,1.33243,1.46396,4.48828,1.03436,5.59013-.4917,1.26123-4.4288,3.49699-5.73404,4.07689-8.52521,3.78764-20.26434,3.80652-26.58771-3.15147-8.37997-9.22098-7.01028-27.61818-6.82898-39.7478.48105-32.17934,2.76843-64.75291-4.28864-95.66896-.28214-1.23596-1.76068-4.74609-1.24637-5.7002.76068-1.41119,8.43808-4.12259,10.28333-4.61591,11.02451-2.94742,29.03232-1.06607,30.02109,13.92065.66721,10.11267-.28833,21.32883-.67029,31.60202-.21494,5.78104-.0014,11.75958.13092,17.62921,17.36523-17.07684,31.9563-37.53619,39.80545-60.73169.47397-1.40067,1.30652-5.48254,2.09888-6.34769,2.68619-2.93304,12.98193-2.99884,16.78027-2.41446,4.89264.75272,14.12366,4.27554,15.25812,9.48135.45764,2.10004-1.48962,6.46149-2.37628,8.55231-7.41028,17.47415-21.57135,32.202-34.64636,45.51303-3.30215,3.36176-6.74017,6.61057-10.19403,9.82095,12.39679,20.90002,27.87775,40.7887,47.85635,54.88667,2.96948,2.09543,6.16125,3.87785,9.09271,6.0287,1.18115,1.76289-1.22864,6.14876-2.23776,7.81731-6.28729,10.39561-19.71692,14.30525-30.6824,10.00006-8.20605-3.22182-15.76474-11.92119-20.89911-18.91725-9.7395-13.27097-19.40332-27.06827-28.95853-40.73325Z"/>
    <path class="c" d="M969.66486,143.52766c-.18182.0267-.27271.04007-.45453.06679-.18433,2.77666-.97021,5.48502-1.43317,8.21654-2.49353,14.71333-3.94293,29.75966-3.17194,44.66893.07025,1.35857.77032,4.65784.17926,5.68224-.67664,1.17256-4.90729,2.7885-6.28546,3.16476-9.00031,2.45732-20.60992.70558-25.81171-7.12781-6.8927-10.37968-2.76251-28.35985-.75293-40.32315,5.33136-31.73825,12.50787-63.5936,10.19666-95.22058-.09241-1.26443-1.02435-4.95746-.37195-5.82303.9649-1.28027,8.96393-2.80206,10.86273-3.01126,11.34326-1.24976,28.86731,3.32581,27.58374,18.29202-.86609,10.0979-3.50415,21.04117-5.43231,31.13892-1.08502,5.68231-1.77612,11.62469-2.53119,17.44705,19.74902-14.25986,37.26996-32.28064,48.53741-54.02707.6803-1.31305,2.12006-5.22244,3.03448-5.95807,3.10022-2.49387,13.29651-1.00421,16.96643.14706,4.72742,1.48294,13.3302,6.35953,13.66687,11.67706.13586,2.14508-2.44946,6.16245-3.64258,8.09537-9.97278,16.15634-26.20642,28.57584-41.14899,39.75986-3.77399,2.82468-7.66516,5.51724-11.56604,8.16946,9.10925,22.5367,21.42438,44.53493,39.06061,61.48395,2.62207,2.5199,5.51147,4.76396,8.08789,7.33296.90259,1.9211-2.14429,5.89291-3.39478,7.38972-7.7937,9.32889-21.66998,11.16286-31.86816,5.252-7.63013-4.42242-13.79492-14.16331-17.81824-21.8558-7.63019-14.58884-15.10504-29.68672-22.49213-44.63792Z"/>
    <g>
      <g>
        <path class="c" d="M643.0116,154.11649c-1.37384.46561-2.06055.69867-3.43359,1.16544-2.32782-6.02284-3.49628-9.03345-5.84186-15.05293,1.55414-.52887,2.33136-.79292,3.88647-1.3203,2.16394,6.08168,3.2417,9.12326,5.38898,15.20779ZM651.55652,151.23177c-1.88306.63327-2.82422.95045-4.70581,1.58591-2.14227-6.08658-3.21753-9.12918-5.37646-15.21291,1.88763-.63795,2.83185-.95638,4.72107-1.59213,2.15283,6.08624,3.22504,9.13007,5.36121,15.21913ZM655.40125,149.94105c-2.13123-6.09106-3.20093-9.13593-5.34875-15.22418,1.76129-.5907,2.64227-.88556,4.40491-1.47433,2.52203,5.96368,3.77832,8.9465,6.28131,14.91406-2.13593.71239-3.20349,1.06926-5.33746,1.78445ZM664.59674,146.87211c-2.49823-5.96994-3.75214-8.95393-6.26941-14.92001,1.49365-.49719,2.24078-.74545,3.73541-1.24127,2.52771,5.96338,3.7868,8.94604,6.29541,14.91331-1.505.49849-2.25732.74808-3.76141,1.24797ZM629.54663,76.12434c4.06232.01251,6.09351.02121,10.15582.0437,2.65576.01468,5.10541,1.06461,6.8941,2.95441s2.64606,4.33322,2.41846,6.87891c-.32422,3.62534-.48608,5.43805-.80908,9.06345-3.51105.0697-7.01892-.8476-10.03705-2.65149-3.54468-2.1185-6.25928-5.37997-7.64148-9.18866-.83154-2.29071-1.16229-4.70761-.98077-7.10031ZM580.63397,85.19553c10.43951,6.42807,20.8479,12.90671,31.22449,19.43582,2.95178,1.7901,5.2641,4.51151,6.51379,7.65991,6.09851,15.37985,12.14398,30.78094,18.11169,46.21204.38971,1.00752,1.52496,1.52802,2.56171,1.17505,10.88037-3.68546,21.76929-7.33852,32.6709-10.96071.53186-.17578.96576-.55919,1.19904-1.05934.23279-.50002.2442-1.07265.03119-1.5817-6.86859-16.34219-13.79852-32.65689-20.79065-48.94666.38824-4.31219.58289-6.46823.9729-10.78036.32672-3.61169-.93658-7.22375-3.47412-9.90671-2.53729-2.68304-6.16022-4.23627-9.93268-4.25699-4.94482-.02734-7.41724-.03732-12.36194-.0499-5.98108-3.08932-8.97723-4.6286-14.98041-7.69623-.92139,1.01575-1.38171,1.52377-2.30194,2.54004,6.15515,3.46082,9.22638,5.19699,15.35583,8.68063-.24927,2.99176.15271,6.01645,1.19415,8.87863,1.69861,4.66843,5.02924,8.66479,9.37476,11.26123,3.75995,2.2464,8.14081,3.3714,12.51764,3.24228,4.02063,9.3143,8.01306,18.64151,11.9765,27.98032-9.41742,3.12119-18.82281,6.28256-28.2135,9.48331-4.0069-10.26193-6.02325-15.39047-10.08173-25.64246-1.56433-3.95129-4.46619-7.36731-8.1723-9.61288-.00555-.00311-.01038-.00623-.0155-.00925-10.29028-6.11115-20.60956-12.17358-30.95709-18.18726"/>
        <path class="c" d="M638.33484,160.73054c-1.19159-.01341-2.29523-.73062-2.74542-1.89392-5.97064-15.42972-12.01898-30.82944-18.12042-46.20789-1.17511-2.95972-3.34973-5.51871-6.12463-7.20111-10.37988-6.53058-20.7915-13.01071-31.23425-19.44019.41913-.63342.62885-.95016,1.04834-1.5835,10.44055,6.42941,20.84998,12.90939,31.2276,19.43988,3.11505,1.88879,5.56561,4.77374,6.88934,8.11011,6.0954,15.38113,12.1377,30.78354,18.10229,46.21587.20715.53615.80023.8092,1.3537.62102,10.88257-3.68622,21.77362-7.34003,32.67743-10.96297.28009-.09273.51093-.29649.63318-.55969.12225-.26318.12823-.56813.0163-.83589-6.90155-16.41183-13.86505-32.79593-20.8913-49.15482.39575-4.40417.59406-6.60623.99158-11.01031.30231-3.35172-.87091-6.70325-3.22516-9.19229-2.3551-2.48999-5.68817-3.91483-9.21631-3.9498-5.04144-.02792-7.56219-.03802-12.60358-.05057-5.79199-2.99197-8.69318-4.48294-14.50598-7.45459-.40698.44876-.61047.67322-1.01727,1.12207,5.95844,3.35287,8.9317,5.03464,14.86609,8.40887-.01984.2341-.02979.35117-.04956.58527-.24188,2.89383.14331,5.75095,1.14026,8.49237,1.62378,4.46613,4.80896,8.28897,8.96619,10.77274,3.60638,2.15549,7.74792,3.22519,11.97589,3.10275.26752-.00797.40137-.01187.66888-.01978,4.23932,9.82138,8.44714,19.65714,12.6228,29.50571-10.03558,3.3226-20.05756,6.69083-30.06287,10.10376-3.44958-8.84027-6.92303-17.67172-10.41992-26.49341-1.49011-3.76196-4.25354-7.01474-7.78357-9.15329-10.29169-6.11151-20.61224-12.17435-30.96118-18.18832.40265-.64343.60406-.96512,1.00702-1.60846,10.34882,6.01483,20.66925,12.07849,30.96075,18.19083,3.90686,2.36752,6.94653,5.94675,8.58362,10.08612,3.92212,9.91202,5.87109,14.87039,9.745,24.79169,10.52203-3.57898,15.7948-5.35147,26.36359-8.86227-3.75287-8.83218-7.53156-17.65399-11.33563-26.46426-4.36774.0148-8.64288-1.1575-12.38513-3.39331-4.53522-2.70914-8.0105-6.87836-9.78406-11.74945-1.02124-2.80402-1.45581-5.71906-1.28925-8.67508-6.32751-3.5946-9.49811-5.38589-15.85303-8.95621,1.43304-1.58414,2.15027-2.37585,3.586-3.95877,6.19348,3.1636,9.2843,4.75119,15.45422,7.93787,4.84821.01257,7.27234.02243,12.12067.04919,4.04132.03717,7.93048,1.68829,10.65015,4.56488,2.71967,2.8761,4.07288,6.74893,3.72131,10.62082-.38239,4.22034-.57318,6.33051-.95392,10.55093,6.95825,16.22037,13.8548,32.46552,20.69049,48.73787.31232.7466.29523,1.59486-.04645,2.3275-.34174.73308-.98444,1.30147-1.76422,1.55917-10.89966,3.62128-21.78662,7.27342-32.66498,10.95795-.34039.11578-.68567.16873-1.0246.16492ZM639.01294,156.46821c-2.59973-6.7254-3.90515-10.08707-6.52704-16.80829,2.29071-.78008,3.43658-1.16928,5.72955-1.94614,2.41614,6.79185,3.61914,10.18867,6.01453,16.98409-2.08777.7068-3.1311,1.06085-5.21704,1.77034ZM634.98621,140.7987c2.07001,5.31735,3.10156,7.9767,5.15771,13.29666.65967-.224.98962-.33592,1.64948-.55966-1.89874-5.37378-2.85132-8.06012-4.763-13.43167-.81781.27766-1.22662.41661-2.04419.69467ZM646.25763,154.01138c-2.39246-6.79662-3.59393-10.19403-6.0072-16.98709,2.61481-.88423,3.92291-1.3253,6.54059-2.20534,2.40375,6.79694,3.60052,10.19627,5.98352,16.99672-2.60822.87619-3.91156,1.31532-6.51691,2.19571ZM642.69751,138.18551c1.90521,5.37421,2.85455,8.06189,4.74677,13.43831,1.15747-.39058,1.73627-.58566,2.89429-.97543-1.88892-5.37778-2.83661-8.06612-4.73846-13.4417-1.16132.39111-1.74182.58687-2.90259.97882ZM654.80511,151.13345c-2.38007-6.80164-3.57538-10.20158-5.9762-16.99971,2.46783-.82816,3.70239-1.24127,6.17273-2.0657,2.81665,6.66002,4.21912,9.99124,7.01202,16.65607-2.88519.96118-4.32684,1.44305-7.20856,2.40935ZM651.27539,135.30012c1.89545,5.37823,2.83984,8.06789,4.72229,13.44829,1.38586-.46405,2.07898-.6958,3.4657-1.15866-2.21277-5.27045-3.32294-7.90492-5.55054-13.17235-1.05524.35275-1.58264.5293-2.63745.88272ZM664.05115,148.04612c-2.7901-6.66643-4.19116-9.99844-7.005-16.66003,2.22388-.74081,3.33618-1.1105,5.56213-1.84827,2.82251,6.65964,4.22778,9.99069,7.02643,16.65518-2.23444.73972-3.3512,1.11034-5.58356,1.85312ZM659.60742,132.51893c2.22144,5.27036,3.32849,7.9063,5.5351,13.17964.77521-.25737,1.16296-.38594,1.93848-.64294-2.21759-5.27007-3.3302-7.90434-5.56281-13.17137-.7644.25369-1.14661.38065-1.91077.63467ZM647.55823,96.0059c-3.50189-.04666-6.90936-1.00653-9.90082-2.7944-3.73383-2.23032-6.59448-5.66562-8.05072-9.6774-.87726-2.41672-1.2262-4.93381-1.03345-7.47891.02625-.34906.03943-.52365.06573-.87271,4.42743.01257,6.64111.02182,11.0686.04626.02191.00024.04382.00049.0658.00073,2.90643.03308,5.58496,1.19009,7.54462,3.26068,1.97363,2.08636,2.91882,4.78354,2.66681,7.59305-.35522,3.96121-.53241,5.94183-.88617,9.90314-.34894.00696-.52338.01047-.87238.01749-.22302.00433-.44507.00504-.66803.00208ZM630.47754,77.06641c-.04388,1.9892.28235,3.95233.96985,5.84885,1.30737,3.60617,3.87701,6.694,7.23248,8.69904,2.61279,1.56195,5.57983,2.42102,8.63379,2.50784.29181-3.28088.43805-4.9213.73083-8.20212.20374-2.28183-.56494-4.47198-2.16846-6.16534-1.60345-1.69382-3.81506-2.66553-6.17841-2.64743-3.68805-.02045-5.5321-.02859-9.22009-.04083Z"/>
      </g>
      <g>
        <path class="c" d="M602.43304,81.52897c7.93604-8.82788,15.91156-17.6203,23.92609-26.37695,2.34668-2.51511,5.54578-4.26459,9.00562-4.92413,16.93787-3.20261,33.88892-6.32095,50.85754-9.35602,1.11041-.19684,1.85364-1.20093,1.67664-2.26562-1.86035-11.15356-3.73151-22.30508-5.61353-33.45505-.09198-.54303-.41736-1.02658-.89917-1.336-.48169-.30893-1.07709-.41626-1.64459-.29636-18.17645,3.87811-36.32922,7.85196-54.4635,11.92297-4.42731-1.06021-6.64233-1.58737-11.07507-2.63589-3.71277-.87827-7.67859-.23618-10.87067,1.75974-3.19214,1.9957-5.37225,5.19565-5.98529,8.77441-.80383,4.69098-1.20453,7.03653-2.00385,11.72784-6.72394,8.42288-13.42542,16.86151-20.10638,25.31845-2.98102,3.78439-4.13904,8.55499-3.24219,13.19092.04608.23822.09778.47632.15466.71375,1.16498,4.85678,4.47491,8.93854,9.07538,11.21014,7.20599,3.55753,15.90363,1.92896,21.20831-3.9722ZM682.86346,33.79105c.23621,1.4082.35425,2.1123.58997,3.52054-6.64093,1.18185-9.95886,1.77939-16.58966,2.98764-.27209-1.5878-.4082-2.38165-.68085-3.96939,6.66785-1.02887,10.00397-1.53662,16.68054-2.53879ZM681.39191,25.03913c.32483,1.92725.487,2.89087.81097,4.81815-6.68262,1.00323-10.02179,1.51151-16.69568,2.54144-.33142-1.92596-.49725-2.88892-.82953-4.81482,6.68134-1.03128,10.02417-1.54022,16.71423-2.54477ZM680.72827,21.1056c-6.69611,1.00562-10.04199,1.51508-16.72937,2.54742-.31018-1.79434-.46545-2.6915-.77637-4.48581,6.6272-1.42035,9.94385-2.12396,16.58276-3.51807.36975,2.18253.55432,3.27386.92297,5.45645ZM679.13702,11.70829c-6.6449,1.39517-9.96442,2.09937-16.59766,3.52078-.26379-1.5195-.39587-2.27927-.66022-3.79874,6.63623-1.43774,9.95734-2.15009,16.60541-3.56155.26123,1.53577.39172,2.30368.65247,3.83951ZM599.82593,33.62446c.66162-3.85709.99323-5.78558,1.6579-9.6424.43451-2.52142,1.91113-4.68552,4.16016-6.091,2.24896-1.40546,4.92987-1.83951,7.54431-1.22128,3.72321.88049,5.5838,1.32285,9.30316,2.21161-.49414,3.36124-2.01813,6.56033-4.38068,9.14642-2.77466,3.03738-6.5968,5.09479-10.7674,5.79834-2.50842.42343-5.06592.35095-7.51746-.20169ZM578.55072,62.78758c6.69098-8.46097,13.40247-16.90356,20.13641-25.33035,3.05853.7142,6.25391.81906,9.38629.29071,5.10907-.86179,9.79309-3.3826,13.19739-7.10556,2.94543-3.22134,4.83258-7.22192,5.40924-11.42221,10.3548-2.34372,20.72089-4.6431,31.09546-6.89755,1.67615,9.57312,3.33875,19.14877,4.98779,28.72662-9.41193,1.72144-18.81805,3.47952-28.21631,5.27399-4.3443.82788-8.35992,3.02686-11.30127,6.18573-.00421.00482-.00818.00891-.01221.01324-8.01465,8.76465-15.99023,17.56506-23.92633,26.40094-.07947.08878-.16199.17392-.24359.2601-1.72406-8.84637-11.7619-16.45245-20.66809-16.18677.05212-.06927.10101-.1402.15521-.20889ZM583.10864,81.9567c-3.51331-1.73508-6.03802-4.85278-6.92365-8.56003-.508-2.12509-.43988-4.30276.15961-6.34708.56982-.05249,1.14215-.08127,1.71259-.07962,8.987.02194,16.36151,6.52667,17.28998,14.97028-3.74579,1.87497-8.28668,1.96802-12.23853.01645Z"/>
        <path class="c" d="M589.2356,88.30848c-2.86298.00247-5.75696-.63953-8.45447-1.97128-4.85754-2.3978-8.35229-6.70743-9.58362-11.83438-.05994-.25055-.11462-.50217-.16321-.7536-.94318-4.87982.2951-9.95996,3.42078-13.92847,6.6153-8.40649,13.2674-16.78568,19.95447-25.13522.78253-4.59872,1.17487-6.89801,1.96173-11.49637.65601-3.83627,2.99225-7.26733,6.41534-9.40781,3.42261-2.13998,7.67676-2.82733,11.65594-1.88675,4.33911,1.02643,6.50732,1.54248,10.84119,2.58014,18.05927-4.05328,36.13684-8.01019,54.23785-11.87222.8288-.17606,1.71393-.01758,2.42065.43594.70673.45355,1.18921,1.17038,1.3244,1.9664,1.87933,11.1503,3.74786,22.30219,5.60559,33.45612.26111,1.57858-.82245,3.04242-2.4679,3.33435-16.96484,3.03427-33.91217,6.15179-50.84625,9.35358-3.25336.62054-6.26172,2.26544-8.46759,4.62933-8.01276,8.7529-15.98651,17.54156-23.92078,26.36566-3.61481,4.02078-8.72339,6.16013-13.93414,6.16458ZM610.95123,13.3603c-2.49261-.0108-4.96429.67108-7.0733,1.98956-2.9621,1.85184-4.98553,4.8208-5.55475,8.14136-.82086,4.7836-1.23004,7.17551-2.04626,11.9595-6.77484,8.48373-13.52692,16.98343-20.25818,25.50174-2.79541,3.54773-3.90723,8.08795-3.06396,12.45276.04352.22546.09253.45053.14636.67441,1.10162,4.58078,4.22302,8.44049,8.56799,10.58569,6.80371,3.35901,15.01874,1.82117,20.02673-3.75122,7.93542-8.82925,15.91028-17.62302,23.92419-26.38104,2.4928-2.67154,5.88391-4.52673,9.552-5.22635,16.94122-3.20337,33.89575-6.32239,50.86774-9.35815.59125-.10468.98035-.63074.88538-1.1976-1.86273-11.15289-3.73627-22.30374-5.62067-33.453-.04834-.28586-.22144-.54321-.47516-.70587-.25378-.1622-.57086-.21878-.86908-.15662-18.25134,3.8942-36.47882,7.88495-54.68768,11.97369-4.52063-1.08276-6.78247-1.62109-11.30884-2.69165-.99219-.2348-2.00452-.35284-3.01251-.35721ZM589.23364,84.31712c-2.25165.00192-4.50659-.50601-6.56921-1.5246-3.7699-1.86105-6.47992-5.20657-7.43164-9.18521-.5365-2.24225-.4787-4.59802.17035-6.81219.07251-.2478.10883-.37167.1814-.61948.26703-.02454.40063-.03687.66772-.06137.62286-.05661,1.22919-.08151,1.80829-.08344,9.36499-.03104,17.27155,6.83832,18.2558,15.8107.0282.25482.04224.38226.07043.63708-.23621.11813-.35425.17719-.59045.29532-2.05182,1.0267-4.30542,1.54126-6.56268,1.54318ZM577.12115,67.93436c-.40045,1.72409-.39594,3.52646.01599,5.25165.82013,3.43655,3.1601,6.3266,6.41632,7.93506h0c3.36829,1.66229,7.32996,1.75119,10.73859.26886-1.17963-7.69748-8.04742-13.46057-16.23779-13.48056-.30182-.00168-.61371.00681-.93311.02499ZM598.58179,81.08326c-.18811-.67865-.28223-1.01797-.47052-1.69659-2.05505-8.92099-10.17615-15.29294-19.73309-15.45102-.75311-.0126-1.1297-.01883-1.88281-.0311.50989-.67398.76495-1.01089,1.27521-1.68472,6.81964-8.62531,13.66058-17.23148,20.52484-25.82123.25037.05847.37555.08774.62592.14627,2.95862.69135,5.97955.78436,8.9798.27838,4.88776-.82477,9.36865-3.23639,12.62512-6.79758,2.82483-3.08981,4.6153-6.8674,5.1731-10.92743.03485-.25674.05225-.3851.08716-.64185,10.9256-2.45374,21.85596-4.87781,32.79456-7.27304,1.78516,10.20273,3.55499,20.40826,5.30939,30.61633-9.72375,1.77582-19.44135,3.59088-29.15051,5.4447-4.13544.78793-7.9588,2.88135-10.76068,5.88959-.01007.01056-.01501.01584-.02509.0264-8.07532,8.82693-16.11096,17.69012-24.10651,26.58936-.50647.53336-.7597.80002-1.26587,1.33353ZM580.27319,62.16062c9.02588.85568,16.59637,6.79105,19.2619,15.0726,7.65466-8.48984,15.33167-16.9566,23.03375-25.40341,3.12604-3.31137,7.28723-5.5708,11.7843-6.42755,10.89929-2.07681,16.35602-3.09741,27.2832-5.10272-1.85297-10.73608-2.78601-16.10361-4.66504-26.83765-9.81116,2.13489-19.61469,4.30994-29.40814,6.52466-.70441,4.18335-2.61652,8.06744-5.54749,11.27295-3.55353,3.88446-8.44073,6.5144-13.77014,7.41324-3.06055.51559-6.13708.46082-9.16119-.16428-6.30188,7.85843-12.57281,15.7431-18.81116,23.65216ZM666.05518,41.40327c-.40125-2.3403-.60211-3.51047-1.00458-5.85068,7.44757-1.15091,11.17401-1.71805,18.63239-2.83566.35822,2.14014.53711,3.21021.89429,5.35043-7.4151,1.3179-11.11957,1.98511-18.52209,3.33591ZM667.31482,37.10703c.14294.83539.21436,1.25305.35718,2.08844,5.85852-1.06607,8.78986-1.59396,14.65631-2.63943-.11334-.67639-.1701-1.01459-.28351-1.69095-5.89539.88635-8.84137,1.33478-14.72998,2.24194ZM604.03223,35.0398c-1.48651-.00403-2.96838-.17096-4.43341-.50128-.35767-.08075-.53656-.12112-.89429-.20178.71954-4.2027,1.08026-6.30396,1.80334-10.50635.47968-2.78293,2.10931-5.17273,4.591-6.72382,2.48199-1.55133,5.44196-2.03012,8.32886-1.34814,4.06921.96228,6.10278,1.44589,10.16736,2.41803-.04919.33423-.07385.50137-.12311.83563-.52679,3.5762-2.12494,6.90585-4.61548,9.63199-2.92358,3.19949-6.94873,5.36636-11.34119,6.10666-1.15955.19583-2.32288.29218-3.48309.28906ZM600.95111,32.88993c2.05548.35809,4.14294.36188,6.2196.01132,3.94952-.66602,7.56781-2.61407,10.19446-5.48981,2.04468-2.23895,3.41943-4.93082,4.00165-7.83044-3.36542-.80319-5.04889-1.20312-8.41754-1.99954-2.34381-.55524-4.74481-.16562-6.7608,1.09418-2.01501,1.25934-3.33929,3.19867-3.72925,5.45877-.60449,3.50211-.90613,5.2532-1.50812,8.75552ZM664.69348,33.47636c-.45972-2.66776-.68988-4.00162-1.15118-6.66925,7.4621-1.15359,11.19592-1.72208,18.66901-2.84235.44983,2.66968.67432,4.00455,1.12256,6.67432-7.46161,1.11826-11.1897,1.68573-18.64038,2.83728ZM665.81189,28.36076c.20386,1.1842.30573,1.77637.50928,2.9606,5.89685-.90857,8.84698-1.3577,14.75061-2.24542-.19952-1.18497-.29938-1.77747-.49921-2.96237-5.90765.88843-8.85986,1.33789-14.76068,2.24719ZM663.18445,24.73103c-.435-2.5141-.65289-3.77118-1.08936-6.28516,7.40131-1.58804,11.10565-2.37393,18.52148-3.92923.49896,2.94812.74786,4.42218,1.24487,7.37042-7.4762,1.12091-11.21167,1.68973-18.677,2.84396ZM664.35046,19.8892c.18579,1.07446.27863,1.61172.46417,2.68622,5.90833-.91071,8.8642-1.36084,14.77936-2.25067-.23975-1.41708-.35974-2.12564-.59998-3.54269-5.862,1.23264-8.79071,1.85406-14.64355,3.10715ZM661.73285,16.36527c-.39307-2.26154-.58997-3.3923-.98419-5.65375,7.41144-1.60754,11.12097-2.40311,18.54718-3.97787.38788,2.28027.58154,3.42047.96826,5.70084-7.4198,1.55591-11.1261,2.3421-18.53125,3.93079ZM663.00885,12.14957c.13495.77744.20239,1.16617.33722,1.94357,5.86096-1.25449,8.7937-1.87659,14.66382-3.11057-.1347-.79135-.20209-1.18701-.33691-1.97839-5.87024,1.24792-8.8031,1.87701-14.66412,3.14539Z"/>
      </g>
      <g>
        <path class="c" d="M566.62421,192.20246c-.46014-1.35077-.69031-2.02612-1.15118-3.37675,6.10779-2.23251,9.16595-3.34299,15.29053-5.55225.51477,1.52585.77197,2.28882,1.28583,3.81483-6.17786,2.03381-9.26294,3.05667-15.42517,5.11417ZM569.47772,200.5987c-.62714-1.84918-.94098-2.77371-1.56952-4.62263,6.1571-2.05553,9.23962-3.07741,15.41235-5.10927.62219,1.85133.93286,2.77707,1.55365,4.62865-6.16638,2.02948-9.24573,3.05014-15.39648,5.10326ZM570.75647,204.37321c6.14557-2.05116,9.22235-3.07085,15.38354-5.09839.57721,1.72533.8656,2.58804,1.44165,4.31357-6.03107,2.39728-9.04218,3.60159-15.05518,6.02151-.70709-2.09483-1.06116-3.14217-1.77002-5.23669ZM573.802,213.39263c6.00812-2.418,9.01666-3.62137,15.04285-6.01674.48694,1.46147.73016,2.19226,1.21619,3.65387-6.01648,2.40823-9.0202,3.61804-15.01855,6.04886-.49579-1.47447-.74384-2.21167-1.24048-3.68599ZM645.76031,180.65871c-.13281,3.90607-.1991,5.8591-.33148,9.76518-.08649,2.55365-1.21002,4.87935-3.16022,6.55072s-4.43231,2.43626-6.99371,2.1554c-3.64777-.40013-5.47211-.5981-9.12152-.98993.00122-3.3941,1.00299-6.76363,2.89746-9.6326,2.22498-3.36958,5.59698-5.90024,9.49158-7.12021,2.34247-.73398,4.80023-.97816,7.2179-.72856ZM660.73834,152.3646c-4.82184,8.10167-9.61682,16.22017-14.38403,24.3541-3.0249-.33685-6.104-.04546-9.03418.87253-4.77936,1.49731-8.91595,4.60402-11.64307,8.73938-2.3595,3.57811-3.58679,7.79221-3.54126,12.02821-9.46692,3.68521-18.91858,7.41295-28.35236,11.18221-3.05457-9.21825-6.13159-18.42946-9.23059-27.63287,10.44965-3.75711,15.68665-5.61874,26.18469-9.30783,4.04614-1.42189,7.58649-4.14178,9.9718-7.66367.00323-.00531.00659-.0099.00977-.01472,4.59814-6.92303,6.90698-10.3813,11.54413-17.29118-.71478-1.83577-1.07251-2.75357-1.78894-4.58904-5.28247,7.87041-7.91113,11.80989-13.14294,19.69733-1.90167,2.808-4.72516,4.97659-7.95294,6.11139-15.75165,5.52831-31.46063,11.17857-47.13855,16.91238-1.02246.37419-1.55743,1.48514-1.20795,2.50574,3.65057,10.69002,7.28326,21.38538,10.8985,32.08742.17554.52112.55939.94679,1.06061,1.17627.5011.22903,1.07526.24155,1.58606.03452,16.43726-6.64174,32.9079-13.19177,49.41699-19.65265,4.33734.46376,6.50537.69858,10.84033,1.17407,3.63074.39832,7.29486-.73055,10.06116-3.10011,2.76636-2.36934,4.42944-5.80414,4.55573-9.42786.16577-4.74991.24884-7.12483.41516-11.87473,5.56055-9.43886,11.14215-18.86369,16.74615-28.27682"/>
        <path class="c" d="M573.83875,222.65202c-.42395.00201-.84833-.08672-1.23956-.26543-.73651-.33749-1.30499-.96823-1.56177-1.73274-3.61743-10.70096-7.25238-21.39523-10.90521-32.08418-.51819-1.5125.26215-3.13304,1.77802-3.68767,15.68079-5.73511,31.3927-11.38664,47.14722-16.9162,3.03564-1.06737,5.69073-3.10722,7.47809-5.74712,5.63715-8.50119,8.47046-12.7469,14.16644-21.2283,1.05438,2.70169,1.58075,4.0527,2.63159,6.75507-4.76941,7.10036-7.14374,10.65405-11.87189,17.76833-2.45667,3.63327-6.16553,6.48175-10.40369,7.97141-10.14697,3.56555-15.20911,5.3643-25.31079,8.99342,3.4696,10.32353,5.1933,15.4872,8.61859,25.81812,8.92664-3.56375,17.86926-7.09036,26.8255-10.57892.07446-4.23537,1.3421-8.33817,3.69-11.89981,2.84497-4.31558,7.16156-7.5589,12.14996-9.12221,2.86206-.89688,5.82312-1.22362,8.80585-.97154,5.59686-9.54294,8.41144-14.30959,14.07324-23.83295.66254.37866.99371.56804,1.65594.94696-4.92828,8.27707-9.82855,16.57169-14.69977,24.88245-.24744-.02753-.37115-.04129-.61859-.06879-2.92261-.325-5.83258-.04482-8.63934.83438-4.57129,1.43193-8.52698,4.40289-11.13586,8.35738-2.26398,3.43225-3.43231,7.41124-3.38928,11.50531.00293.2587.00427.38803.0072.64673-9.98083,3.88312-19.94482,7.81357-29.88879,11.7901-3.25586-9.82426-6.53711-19.64056-9.84338-29.44797,9.00586-3.24449,18.02612-6.4521,27.05841-9.62213,3.85406-1.35442,7.22565-3.94481,9.49719-7.29958.01019-.01515.01526-.02274.02545-.03789,4.48248-6.75098,6.73297-10.12338,11.2525-16.86186-.37756-.96947-.56647-1.45419-.94458-2.42357-4.86774,7.25642-7.29083,10.88832-12.11554,18.15921-2.02014,2.98218-5.01227,5.28064-8.43219,6.48302-15.74866,5.52705-31.45477,11.17606-47.1297,16.9086-.54413.19901-.82446.78044-.63849,1.32339,3.64856,10.69073,7.27917,21.3868,10.8924,32.08954.09198.2747.297.50266.56018.6228.26361.12035.57007.12659.83862.01711,16.51184-6.672,33.05743-13.25151,49.64172-19.74106,4.43066.47357,6.64545.71342,11.07361,1.19923,3.3692.36754,6.77173-.67924,9.33734-2.87756,2.56635-2.19897,4.1109-5.38664,4.22711-8.74979.16772-4.84389.25171-7.26585.42004-12.10974.04797-.08134.07196-.12201.11993-.20335,5.5592-9.43993,11.1394-18.86583,16.742-28.28004.66229.37962.99341.56947,1.6554.94936-5.56488,9.34433-11.10773,18.70021-16.62982,28.06992-.16418,4.65565-.24615,6.98351-.40973,11.63918-.13641,3.88478-1.922,7.56627-4.88641,10.10591-2.96484,2.53999-6.8913,3.75037-10.784,3.32338-4.24158-.4653-6.36292-.69516-10.60681-1.14923-16.43347,6.43221-32.82886,12.9528-49.19104,19.56425-.34979.14191-.72144.21332-1.09332.21509ZM574.46765,218.32609c-.73615-2.18921-1.10474-3.28372-1.8429-5.4726,6.70959-2.70227,10.06995-4.04636,16.80206-6.72038.72455,2.17545,1.08643,3.26324,1.80902,5.43903-6.71863,2.68748-10.0722,4.0383-16.76819,6.75395ZM574.97925,213.93202c.25549.75981.38318,1.13972.63849,1.89958,5.30035-2.14636,7.95404-3.21515,13.26849-5.34389-.24902-.74786-.37354-1.12177-.6228-1.8696-5.32068,2.11673-7.9776,3.1795-13.28418,5.3139ZM571.9502,210.85459c-.95508-2.82933-1.43347-4.24384-2.39191-7.0726,6.86322-2.29253,10.2998-3.43146,17.18243-5.69452.80872,2.41771,1.21252,3.62669,2.0188,6.04483-6.73499,2.67477-10.0968,4.01926-16.80933,6.72229ZM571.95459,204.96491c.45966,1.35991.68933,2.03989,1.14819,3.39993,5.31305-2.13651,7.97308-3.20035,13.30023-5.31918-.34521-1.03372-.51788-1.55058-.86353-2.58423-5.44,1.79216-8.15704,2.69289-13.5849,4.50348ZM568.88257,201.78817c-.86884-2.56129-1.30389-3.84183-2.17548-6.40265,6.87616-2.29704,10.31903-3.43823,17.2146-5.70575.86176,2.56453,1.29199,3.84692,2.151,6.41193-6.88574,2.26384-10.32379,3.40315-17.19012,5.69647ZM569.10925,196.56675c.38599,1.13695.57886,1.70544.96436,2.84248,5.43463-1.81279,8.15491-2.71457,13.60168-4.50891-.38196-1.13834-.57318-1.70749-.95569-2.84575-5.45026,1.79564-8.1723,2.69809-13.61035,4.51218ZM636.20056,200.12627c-.34125-.00371-.68408-.02481-1.02869-.06239-3.9856-.43698-5.97888-.65298-9.96649-1.08005.00012-.33757.00018-.50633.00037-.84389.00055-3.61218,1.05341-7.12175,3.05042-10.14627,2.3429-3.54979,5.89447-6.21626,9.99829-7.50182,2.47357-.77423,5.03278-1.03061,7.60437-.76738.35278.03658.52917.05487.88196.09152-.14557,4.25571-.2182,6.38356-.36328,10.63927-.09601,2.81856-1.33673,5.38571-3.48926,7.23012-1.88965,1.61929-4.23157,2.4675-6.68768,2.44089ZM627.12262,197.3001c3.30347.35522,4.95477.53453,8.25684.89655,2.29486.2473,4.52179-.43404,6.26941-1.93187,1.7475-1.49771,2.75397-3.58337,2.83075-5.87291.11938-3.54681.1792-5.32021.29895-8.86703-2.01025-.1076-4.00958.15016-5.94788.75772-3.6864,1.15488-6.87805,3.54988-8.9848,6.73862-1.64026,2.4826-2.573,5.32936-2.72327,8.27893ZM566.02863,193.39219c-.69952-2.05222-1.04974-3.07822-1.75104-5.13013,6.82129-2.49556,10.23718-3.73613,17.07941-6.2027.75854,2.24913,1.13739,3.37378,1.89386,5.62326-6.89862,2.26906-10.34308,3.41098-17.22223,5.70956ZM566.66772,189.39057c.22119.64873.33179.97308.5528,1.62184,5.4447-1.81665,8.17017-2.72037,13.62708-4.51854-.27051-.80272-.40588-1.20404-.67664-2.0067-5.40784,1.95229-8.10852,2.93298-13.50323,4.9034Z"/>
      </g>
    </g>
  </g>
</svg>